<svg width="32" height="32" viewBox="0 0 32 32" xmlns="http://www.w3.org/2000/svg">
    <path fill-rule="evenodd" clip-rule="evenodd"
          d="M32 16C32 24.8366 24.8366 32 16 32C7.16344 32 0 24.8366 0 16C0 7.16344 7.16344 0 16 0C24.8366 0 32 7.16344 32 16ZM12.5448 7.5116H19.3761C22.1525 7.5116 24.4112 9.7703 24.4112 12.5466V19.378C24.4112 22.1543 22.1525 24.413 19.3761 24.413H12.5448C9.76847 24.413 7.50977 22.1543 7.50977 19.378V12.5466C7.50977 9.7703 9.76847 7.5116 12.5448 7.5116ZM19.3761 22.7127C21.2179 22.7127 22.7109 21.2197 22.7109 19.378V12.5466C22.7109 10.7049 21.2179 9.21188 19.3761 9.21188H12.5448C10.7031 9.21188 9.21005 10.7049 9.21005 12.5466V19.378C9.21005 21.2197 10.7031 22.7127 12.5448 22.7127H19.3761ZM15.9651 11.5911C13.5547 11.5911 11.5938 13.552 11.5938 15.9624C11.5938 18.3727 13.5547 20.3337 15.9651 20.3337C18.3754 20.3337 20.3364 18.3727 20.3364 15.9624C20.3364 13.552 18.3754 11.5911 15.9651 11.5911ZM15.9651 18.6334C14.4899 18.6334 13.294 17.4375 13.294 15.9624C13.294 14.4872 14.4899 13.2913 15.9651 13.2913C17.4402 13.2913 18.6361 14.4872 18.6361 15.9624C18.6361 17.4375 17.4402 18.6334 15.9651 18.6334ZM21.3879 11.6242C21.3879 12.2027 20.919 12.6717 20.3405 12.6717C19.762 12.6717 19.293 12.2027 19.293 11.6242C19.293 11.0457 19.762 10.5768 20.3405 10.5768C20.919 10.5768 21.3879 11.0457 21.3879 11.6242Z"/>
</svg>
