<svg width="32" height="32" viewBox="0 0 32 32" xmlns="http://www.w3.org/2000/svg">
    <path fill-rule="evenodd" clip-rule="evenodd"
          d="M32 16C32 24.8366 24.8366 32 16 32C7.16344 32 0 24.8366 0 16C0 7.16344 7.16344 0 16 0C24.8366 0 32 7.16344 32 16ZM16.65 23.0174H15.3942C15.3942 23.0174 12.6234 23.1843 10.1834 20.6439C7.5223 17.873 5.17213 12.3746 5.17213 12.3746C5.17213 12.3746 5.03665 12.0141 5.18382 11.8398C5.34924 11.6439 5.79988 11.6313 5.79988 11.6313L8.80177 11.6117C8.80177 11.6117 9.08471 11.659 9.28721 11.8076C9.45406 11.9303 9.54761 12.1596 9.54761 12.1596C9.54761 12.1596 10.0328 13.3866 10.6754 14.4966C11.9294 16.6637 12.5136 17.1377 12.9394 16.9055C13.5597 16.567 13.3738 13.8421 13.3738 13.8421C13.3738 13.8421 13.3852 12.8529 13.0615 12.4126C12.8108 12.0712 12.3379 11.9716 12.1291 11.9437C11.9602 11.9211 12.2375 11.529 12.5968 11.353C13.137 11.0883 14.0911 11.0732 15.2183 11.0849C16.0964 11.0937 16.3491 11.1485 16.6925 11.2315C17.4892 11.4238 17.4644 12.0403 17.4108 13.3702C17.3948 13.7676 17.3762 14.2288 17.3762 14.7613C17.3762 14.8811 17.3727 15.0088 17.3691 15.1402C17.3505 15.8214 17.3292 16.6012 17.7775 16.891C18.0074 17.0393 18.5698 16.9132 19.9765 14.5246C20.6433 13.3926 21.1433 12.0615 21.1433 12.0615C21.1433 12.0615 21.2526 11.8242 21.4223 11.7223C21.596 11.6185 21.8301 11.6505 21.8301 11.6505L24.9892 11.6308C24.9892 11.6308 25.9384 11.5175 26.0921 11.9459C26.2532 12.3957 25.7373 13.4459 24.4467 15.166C23.221 16.7996 22.6255 17.4 22.6815 17.9318C22.7223 18.3195 23.1094 18.6708 23.8512 19.3593C25.4061 20.8026 25.8206 21.5605 25.9191 21.7406C25.927 21.7552 25.9329 21.766 25.9372 21.773C26.6331 22.927 25.1654 23.0174 25.1654 23.0174L22.3598 23.0565C22.3598 23.0565 21.7568 23.176 20.9633 22.631C20.5484 22.3462 20.1427 21.8811 19.7562 21.4379C19.1653 20.7605 18.6192 20.1344 18.1531 20.2822C17.3711 20.5303 17.3956 22.2154 17.3956 22.2154C17.3956 22.2154 17.4013 22.5753 17.223 22.767C17.0294 22.9758 16.65 23.0174 16.65 23.0174Z"/>
</svg>
